<?xml version="1.0" encoding="utf-8"?>
<!-- Generator: Adobe Illustrator 21.1.0, SVG Export Plug-In . SVG Version: 6.00 Build 0)  -->
<svg version="1.1" id="Layer_1" xmlns="http://www.w3.org/2000/svg" xmlns:xlink="http://www.w3.org/1999/xlink" x="0px" y="0px"
	 viewBox="0 0 209.9 112.8" style="enable-background:new 0 0 209.9 112.8;" xml:space="preserve">
<style type="text/css">
	.st0{fill:#FBFBFC;}
	.st1{fill:#29364A;}
	.st2{fill:#ABC31E;}
	.st3{fill:#FFFFFF;}
</style>
<g>
	<path class="st3" d="M13.4,103.2c-0.8,0.7-2.1,1-3.9,1H3V96h6.6c1.7,0,3,0.3,3.9,1c0.8,0.7,1.3,1.7,1.3,3.1
		C14.7,101.5,14.3,102.5,13.4,103.2 M3,85.6h6.1c1.7,0,2.9,0.3,3.8,1c0.9,0.7,1.3,1.7,1.3,2.9c0,1.3-0.4,2.3-1.3,2.9
		c-0.9,0.7-2.1,1-3.8,1H3V85.6z M13.5,94.6c1-0.4,1.8-0.9,2.4-1.7c0.8-1,1.3-2.2,1.3-3.6c0-1.3-0.3-2.4-0.9-3.3
		c-0.6-0.9-1.5-1.6-2.6-2.1c-1.1-0.5-2.5-0.7-4.1-0.7H1.7c-0.5,0-0.9,0.1-1.2,0.4C0.1,83.9,0,84.3,0,84.9v20.1
		c0,0.5,0.1,0.9,0.4,1.2c0.3,0.3,0.7,0.4,1.2,0.4h8.3c2.5,0,4.4-0.6,5.8-1.7c1.4-1.1,2-2.7,2-4.8c0-1.6-0.5-2.9-1.4-3.9
		C15.6,95.4,14.6,94.9,13.5,94.6"/>
	<path class="st3" d="M23.6,90.3c-0.5,0-0.8,0.1-1.1,0.4c-0.3,0.3-0.4,0.7-0.4,1.2v13.2c0,0.5,0.1,0.9,0.4,1.2
		c0.3,0.3,0.6,0.4,1.1,0.4c0.5,0,0.9-0.1,1.1-0.4c0.3-0.3,0.4-0.7,0.4-1.2V91.9c0-0.5-0.1-0.9-0.4-1.2
		C24.5,90.4,24.1,90.3,23.6,90.3"/>
	<path class="st3" d="M23.6,83.2c-0.6,0-1.1,0.2-1.4,0.4c-0.3,0.3-0.5,0.7-0.5,1.3c0,0.5,0.2,1,0.5,1.3c0.3,0.3,0.8,0.5,1.4,0.5
		c0.6,0,1.1-0.2,1.4-0.5c0.3-0.3,0.5-0.7,0.5-1.3c0-0.6-0.2-1-0.5-1.3C24.8,83.3,24.3,83.2,23.6,83.2"/>
	<path class="st3" d="M38.3,90.1c-1.5,0.1-2.7,0.5-3.7,1.2c-0.7,0.5-1.3,1.2-1.7,2.1v-1.6c0-0.5-0.1-0.9-0.4-1.1
		c-0.3-0.3-0.6-0.4-1.1-0.4c-0.5,0-0.8,0.1-1.1,0.4c-0.3,0.3-0.4,0.6-0.4,1.1v13.5c0,0.5,0.1,0.9,0.4,1.2c0.3,0.3,0.7,0.4,1.2,0.4
		c0.5,0,0.9-0.1,1.1-0.4c0.3-0.3,0.4-0.7,0.4-1.2v-7.8c0-1.4,0.4-2.5,1.2-3.3c0.8-0.8,1.9-1.3,3.4-1.4l0.6,0c0.5,0,0.8-0.2,1-0.4
		c0.2-0.3,0.3-0.6,0.3-1c0-0.4-0.1-0.8-0.4-0.9C38.9,90.2,38.6,90.1,38.3,90.1"/>
	<path class="st3" d="M48.9,104.3c-0.2,0-0.3,0-0.5,0c-0.2,0-0.3,0-0.5,0c-0.9,0-1.6-0.3-2-0.8c-0.5-0.6-0.7-1.4-0.7-2.6V84.5
		c0-0.5-0.1-0.9-0.4-1.1c-0.3-0.3-0.6-0.4-1.1-0.4c-0.5,0-0.8,0.1-1.1,0.4c-0.3,0.3-0.4,0.6-0.4,1.1v16.7c0,1.9,0.4,3.3,1.3,4.3
		c0.9,1,2.1,1.5,3.8,1.5c0.2,0,0.4,0,0.6,0c0.2,0,0.4,0,0.6-0.1c0.4-0.1,0.7-0.2,0.9-0.4c0.2-0.2,0.3-0.6,0.3-1
		c0-0.5-0.1-0.8-0.2-0.9C49.3,104.3,49.1,104.3,48.9,104.3"/>
	<path class="st3" d="M56.2,93.1c0.8-0.5,1.7-0.7,2.7-0.7c1,0,1.8,0.2,2.4,0.6c0.6,0.4,1.2,1,1.5,1.8c0.3,0.7,0.5,1.5,0.5,2.5h-9.4
		c0.1-0.8,0.3-1.5,0.5-2.1C54.9,94.3,55.4,93.6,56.2,93.1 M65.6,98.9c0.2-0.2,0.3-0.5,0.3-0.8c0-1.2-0.2-2.4-0.5-3.3
		c-0.3-1-0.8-1.8-1.4-2.5c-0.6-0.7-1.4-1.2-2.2-1.6c-0.9-0.4-1.9-0.5-2.9-0.5c-1.5,0-2.9,0.4-4.1,1.1c-1.2,0.7-2.1,1.7-2.8,3
		c-0.7,1.3-1,2.7-1,4.4c0,1.7,0.3,3.2,1,4.4c0.7,1.2,1.7,2.2,2.9,2.9c1.2,0.7,2.7,1,4.5,1c0.9,0,1.9-0.1,2.9-0.4
		c1-0.3,1.9-0.7,2.6-1.2c0.3-0.2,0.5-0.4,0.6-0.7c0.1-0.3,0.1-0.5,0.1-0.7c0-0.2-0.2-0.4-0.3-0.6c-0.2-0.2-0.4-0.3-0.7-0.3
		c-0.3,0-0.6,0.1-0.9,0.3c-0.7,0.5-1.4,0.8-2.1,1c-0.7,0.2-1.5,0.3-2.2,0.3c-1.8,0-3.2-0.5-4.1-1.5c-0.8-0.9-1.3-2.2-1.4-3.8h10.8
		C65.1,99.2,65.4,99.1,65.6,98.9"/>
	<path class="st3" d="M83.4,91.3c0-0.3-0.2-0.6-0.4-0.8c-0.2-0.2-0.5-0.3-0.9-0.3c-0.4,0-0.8,0.1-1,0.3c-0.2,0.2-0.5,0.5-0.6,0.9
		l-4.8,11.7l-4.7-11.7c-0.2-0.4-0.4-0.8-0.6-0.9c-0.2-0.2-0.5-0.3-0.9-0.3c-0.4,0-0.8,0.1-1,0.3c-0.3,0.2-0.4,0.5-0.4,0.8
		c0,0.3,0,0.7,0.2,1l6,14l-2,4.5c-0.2,0.4-0.2,0.7-0.2,1c0,0.3,0.2,0.6,0.4,0.8c0.2,0.2,0.5,0.3,0.9,0.3c0.4,0,0.7-0.1,1-0.2
		c0.2-0.2,0.5-0.5,0.7-0.9l8.4-19.3C83.3,91.9,83.4,91.6,83.4,91.3"/>
	<path class="st3" d="M90.8,83c-0.5,0-0.9,0.1-1.1,0.4c-0.3,0.3-0.4,0.7-0.4,1.2v15.8c0,1.2-0.3,2.1-0.9,2.7c-0.6,0.7-1.4,1-2.5,1.1
		l-1,0.1c-0.4,0-0.7,0.2-0.9,0.4c-0.2,0.2-0.3,0.5-0.3,0.8c0,0.4,0.1,0.7,0.4,1s0.6,0.4,1.1,0.4l1.1-0.1c1.3-0.1,2.4-0.4,3.3-0.9
		c0.9-0.5,1.6-1.2,2-2.2c0.4-0.9,0.7-2,0.7-3.3V84.5c0-0.5-0.1-0.9-0.4-1.2C91.7,83.1,91.3,83,90.8,83"/>
	<path class="st3" d="M107,102.4c-0.4,0.7-0.9,1.2-1.5,1.7c-0.6,0.4-1.4,0.6-2.2,0.6c-1.1,0-1.9-0.3-2.5-0.8
		c-0.6-0.5-0.9-1.3-0.9-2.1c0-0.7,0.2-1.2,0.6-1.6c0.4-0.4,1.1-0.7,2.1-0.8c1-0.2,2.3-0.2,4-0.2h1v0.9
		C107.6,100.9,107.4,101.7,107,102.4 M107.7,90.8c-0.9-0.5-2.1-0.7-3.5-0.7c-0.8,0-1.7,0.1-2.7,0.3c-1,0.2-1.9,0.6-2.9,1
		c-0.3,0.1-0.5,0.3-0.6,0.5c-0.1,0.2-0.2,0.5-0.2,0.7c0,0.3,0.1,0.5,0.2,0.7c0.1,0.2,0.3,0.3,0.6,0.4c0.2,0.1,0.5,0,0.9-0.1
		c0.8-0.4,1.6-0.7,2.4-0.9c0.8-0.2,1.5-0.3,2.3-0.3c1.3,0,2.2,0.3,2.7,0.9c0.5,0.6,0.8,1.5,0.8,2.8v1h-1.1c-2.4,0-4.3,0.1-5.7,0.4
		c-1.4,0.3-2.4,0.8-3,1.5c-0.6,0.7-0.9,1.6-0.9,2.8c0,0.9,0.3,1.8,0.7,2.5c0.5,0.8,1.2,1.3,2.1,1.8c0.9,0.4,1.9,0.7,3,0.7
		c0.9,0,1.7-0.2,2.4-0.5c0.7-0.3,1.3-0.8,1.8-1.4c0.3-0.4,0.5-0.7,0.7-1.2v1.4c0,0.5,0.1,0.9,0.4,1.2c0.3,0.3,0.6,0.4,1,0.4
		c0.5,0,0.8-0.1,1.1-0.4c0.2-0.3,0.4-0.7,0.4-1.2v-8.8c0-1.5-0.2-2.7-0.7-3.6C109.3,92,108.6,91.3,107.7,90.8"/>
	<path class="st3" d="M121.5,98.2l6.1-6c0.3-0.3,0.5-0.6,0.5-0.9c0-0.3-0.1-0.6-0.3-0.8c-0.2-0.2-0.5-0.3-1-0.3
		c-0.4,0-0.8,0.1-1,0.3c-0.3,0.2-0.6,0.4-0.9,0.8l-6.5,6.3h-0.1V84.5c0-0.5-0.1-0.9-0.4-1.1c-0.3-0.3-0.6-0.4-1.1-0.4
		c-0.5,0-0.8,0.1-1.1,0.4c-0.3,0.3-0.4,0.6-0.4,1.1v20.8c0,0.5,0.1,0.9,0.4,1.2c0.3,0.3,0.6,0.4,1.1,0.4c1,0,1.5-0.5,1.5-1.6v-6.2
		h0.1l7,6.6c0.4,0.4,0.7,0.7,0.9,0.8c0.3,0.2,0.6,0.3,1.1,0.3c0.4,0,0.7-0.1,0.9-0.3c0.2-0.2,0.4-0.5,0.4-0.8c0-0.3-0.1-0.7-0.4-1
		L121.5,98.2z"/>
	<path class="st3" d="M136,93.1c0.8-0.5,1.7-0.7,2.7-0.7c1,0,1.8,0.2,2.4,0.6c0.7,0.4,1.2,1,1.5,1.8c0.3,0.7,0.5,1.5,0.5,2.5h-9.4
		c0.1-0.8,0.3-1.5,0.5-2.1C134.6,94.3,135.2,93.6,136,93.1 M145.4,98.9c0.2-0.2,0.3-0.5,0.3-0.8c0-1.2-0.2-2.4-0.5-3.3
		c-0.3-1-0.8-1.8-1.4-2.5c-0.6-0.7-1.4-1.2-2.2-1.6c-0.9-0.4-1.9-0.5-2.9-0.5c-1.5,0-2.9,0.4-4.1,1.1c-1.2,0.7-2.1,1.7-2.8,3
		c-0.7,1.3-1,2.7-1,4.4c0,1.7,0.3,3.2,1,4.4c0.7,1.2,1.7,2.2,2.9,2.9c1.2,0.7,2.7,1,4.5,1c0.9,0,1.9-0.1,2.9-0.4
		c1-0.3,1.9-0.7,2.6-1.2c0.3-0.2,0.5-0.4,0.6-0.7c0.1-0.3,0.1-0.5,0.1-0.7c0-0.2-0.2-0.4-0.3-0.6c-0.2-0.2-0.4-0.3-0.7-0.3
		c-0.3,0-0.6,0.1-0.9,0.3c-0.7,0.5-1.4,0.8-2.1,1c-0.7,0.2-1.5,0.3-2.2,0.3c-1.8,0-3.2-0.5-4.1-1.5c-0.8-0.9-1.3-2.2-1.4-3.8h10.8
		C144.9,99.2,145.2,99.1,145.4,98.9"/>
	<path class="st3" d="M170.8,90.9c-0.8-0.5-1.8-0.7-3-0.7c-1.4,0-2.6,0.4-3.6,1.1c-0.8,0.6-1.4,1.3-1.9,2.2c-0.3-1-0.8-1.7-1.5-2.3
		c-0.8-0.7-1.9-1-3.3-1c-1.3,0-2.4,0.3-3.4,1c-0.7,0.5-1.3,1.1-1.7,2v-1.4c0-0.5-0.1-0.9-0.4-1.1c-0.3-0.3-0.6-0.4-1.1-0.4
		c-0.5,0-0.8,0.1-1.1,0.4c-0.3,0.3-0.4,0.6-0.4,1.1v13.5c0,0.5,0.1,0.9,0.4,1.2c0.3,0.3,0.6,0.4,1.1,0.4c1,0,1.5-0.5,1.5-1.6v-7.8
		c0-1.5,0.4-2.7,1.1-3.6c0.7-0.9,1.7-1.3,3-1.3c1.2,0,2,0.3,2.5,1c0.5,0.7,0.7,1.7,0.7,3.1v8.6c0,0.5,0.1,0.9,0.4,1.2
		c0.3,0.3,0.6,0.4,1.1,0.4c0.5,0,0.9-0.1,1.1-0.4c0.3-0.3,0.4-0.7,0.4-1.2v-7.8c0-1.5,0.4-2.7,1.1-3.6c0.7-0.9,1.7-1.3,3-1.3
		c1.2,0,2,0.3,2.5,1c0.5,0.7,0.7,1.7,0.7,3.1v8.6c0,0.5,0.1,0.9,0.4,1.2c0.3,0.3,0.6,0.4,1.1,0.4c0.5,0,0.8-0.1,1.1-0.4
		c0.3-0.3,0.4-0.7,0.4-1.2v-8.7c0-1.5-0.2-2.7-0.6-3.6C172.2,92,171.6,91.3,170.8,90.9"/>
	<path class="st3" d="M187.5,102.4c-0.4,0.7-0.9,1.2-1.5,1.7c-0.6,0.4-1.4,0.6-2.2,0.6c-1.1,0-1.9-0.3-2.5-0.8
		c-0.6-0.5-0.9-1.3-0.9-2.1c0-0.7,0.2-1.2,0.6-1.6c0.4-0.4,1.1-0.7,2.1-0.8c1-0.2,2.3-0.2,4-0.2h1v0.9
		C188,100.9,187.8,101.7,187.5,102.4 M188.2,90.8c-0.9-0.5-2.1-0.7-3.5-0.7c-0.8,0-1.7,0.1-2.7,0.3c-1,0.2-1.9,0.6-2.9,1
		c-0.3,0.1-0.5,0.3-0.6,0.5c-0.1,0.2-0.2,0.5-0.2,0.7c0,0.3,0.1,0.5,0.2,0.7c0.1,0.2,0.3,0.3,0.6,0.4c0.2,0.1,0.5,0,0.9-0.1
		c0.8-0.4,1.6-0.7,2.4-0.9c0.8-0.2,1.5-0.3,2.3-0.3c1.3,0,2.2,0.3,2.7,0.9c0.5,0.6,0.8,1.5,0.8,2.8v1h-1.1c-2.4,0-4.3,0.1-5.7,0.4
		c-1.4,0.3-2.4,0.8-3,1.5c-0.6,0.7-0.9,1.6-0.9,2.8c0,0.9,0.3,1.8,0.7,2.5c0.5,0.8,1.2,1.3,2.1,1.8c0.9,0.4,1.9,0.7,3,0.7
		c0.9,0,1.7-0.2,2.4-0.5c0.7-0.3,1.3-0.8,1.8-1.4c0.3-0.4,0.5-0.7,0.7-1.2v1.4c0,0.5,0.1,0.9,0.4,1.2c0.3,0.3,0.6,0.4,1,0.4
		c0.5,0,0.8-0.1,1.1-0.4c0.2-0.3,0.4-0.7,0.4-1.2v-8.8c0-1.5-0.2-2.7-0.7-3.6C189.8,92,189.1,91.3,188.2,90.8"/>
	<path class="st3" d="M209.3,93c-0.4-1-1.1-1.7-1.9-2.1c-0.8-0.5-1.9-0.7-3.2-0.7c-1.3,0-2.6,0.3-3.6,1c-0.8,0.5-1.4,1.2-1.9,2v-1.4
		c0-0.5-0.1-0.9-0.4-1.1c-0.3-0.3-0.6-0.4-1.1-0.4c-0.5,0-0.8,0.1-1.1,0.4c-0.3,0.3-0.4,0.6-0.4,1.1v13.5c0,0.5,0.1,0.9,0.4,1.2
		c0.3,0.3,0.6,0.4,1.1,0.4c1,0,1.5-0.5,1.5-1.6v-7.8c0-1.5,0.4-2.7,1.3-3.5c0.9-0.9,2-1.3,3.4-1.3c1.2,0,2.1,0.3,2.7,1
		c0.6,0.7,0.8,1.7,0.8,3.2v8.5c0,0.5,0.1,0.9,0.4,1.2c0.3,0.3,0.6,0.4,1.1,0.4s0.9-0.1,1.1-0.4c0.3-0.3,0.4-0.7,0.4-1.2v-8.7
		C209.9,95.1,209.7,93.9,209.3,93"/>
	<path class="st3" d="M129.6,63.1c1.2,0,2.1-1,2.1-2.1V32.8c0-0.7-0.3-1.3-0.8-1.7l-24.5-19c-0.8-0.6-1.9-0.6-2.6,0l-24.5,19
		c-0.5,0.4-0.8,1-0.8,1.7v28.3c0,1.2,1,2.1,2.1,2.1c1.2,0,2.1-1,2.1-2.1V33.8l22.3-17.4l22.3,17.4v27.1
		C127.4,62.1,128.4,63.1,129.6,63.1"/>
	<path class="st3" d="M113,66.6H96.7V41.1H113V66.6z M137.7,44.4c-1.2,0-2.1,1-2.1,2.1v20.6l-18.3,0V39c0-1.2-0.9-2.1-2.1-2.1H94.6
		c-1.2,0-2.1,0.9-2.1,2.1v28.1l-17.8,0l-0.1-20.6c0-1.2-1-2.1-2.1-2.1h0c-1.2,0-2.1,1-2.1,2.1l0,22.7c0,1.2,1,2.1,2.1,2.1h65.2
		c1.2,0,2.1-1,2.1-2.1V46.5C139.8,45.4,138.8,44.4,137.7,44.4"/>
	<path class="st3" d="M141.1,27.4l-1.3-1l0,0l-3.8-2.9v0L121.2,12h0.1l-4.8-3.7l0,0l-10.1-7.9c-0.7-0.5-1.6-0.5-2.3,0l-8.7,6.7l0,0
		L94,8.2L89.1,12h0L74.9,23v0l-5,3.9l-0.7,0.6c-0.4,0.3-0.6,0.8-0.7,1.2c-0.1,0.5,0.1,1,0.4,1.4c0.3,0.4,0.8,0.6,1.2,0.7
		c0.5,0.1,1-0.1,1.4-0.4l33.6-26.1l33.6,26.1c0.3,0.3,0.7,0.4,1.2,0.4c0.6,0,1.1-0.3,1.5-0.7C142,29.2,141.9,28,141.1,27.4"/>
</g>
</svg>
